<svg width="500" height="125" xmlns="http://www.w3.org/2000/svg">
 <style type="text/css">.st0{fill: #004a8f}
	.st1{fill: #ec1f26}</style>


 <g>
  <title>Layer 1</title>
  <g id="XMLID_454_">
   <g id="svg_1">
    <polygon id="svg_2" points="385.29998779296875,111.4000015258789 396,111.4000015258789 411.3999938964844,95.9000015258789 385.29998779296875,95.9000015258789 " class="st0"/>
    <polygon id="svg_3" points="279,29.100000381469727 247,29.100000381469727 231.6999969482422,44.29999923706055 279,44.29999923706055 " class="st0"/>
    <polygon id="svg_4" points="443.29998779296875,14.600000381469727 427.79998779296875,29.899999618530273 475.29998779296875,29.899999618530273 475.29998779296875,14.600000381469727 " class="st0"/>
    <path id="svg_5" d="m459.2,60.4c0,2.1 -0.6,3.8 -1.9,5.3c-1.3,1.6 -2.9,2.2 -4.8,2.2l-7,0l-1,0l-4.6,0l0,-4.8c0,-4.1 -0.8,-7.8 -2.2,-11.3c-1.6,-3.5 -3.7,-6.5 -6.2,-9.1c-2.5,-2.7 -5.6,-4.6 -9.1,-6c-3.5,-1.6 -7.2,-2.2 -11.1,-2.2l-12.3,0l-15.4,15.4l27.7,0c3.7,0 6.7,1.3 9.4,3.8c2.5,2.5 3.8,5.7 3.8,9.4l0,4.8l-41.1,0l-1.9,0l-2.2,0c-1.9,0 -3.7,-0.6 -5.1,-2.2c-1.6,-1.4 -2.2,-3.2 -2.2,-5.3l0,-49.6l-15.4,15.4l0,34.9c0,3 0.5,5.9 1.8,8.8c1.1,2.7 2.9,5.3 4.9,7.3c2.1,2.1 4.5,3.7 7.3,4.9c2.7,1.1 5.7,1.8 8.8,1.8l2.2,0l1.9,0l61.1,0l1,0l7,0c3,0 5.9,-0.6 8.6,-1.8c2.7,-1.3 5.1,-2.9 7.3,-4.9c2.1,-2.1 3.7,-4.6 4.9,-7.3c1.3,-2.9 1.9,-5.7 1.9,-8.8l0,-26.6l-16.1,16.1l0,9.8z" class="st0"/>
    <path id="svg_6" d="m312.7,77.1c2.1,-2.1 3.8,-4.6 4.9,-7.3c1.3,-2.9 1.9,-5.7 1.9,-8.8l0,-26.7l-16.1,16.1l0,10.7c0,2.1 -0.6,3.8 -1.9,5.3c-1.1,1.4 -2.9,2.2 -4.8,2.2l-12.1,0l-3.3,0l-43,0c-2.1,0 -3.8,-0.8 -5.3,-2.2c-1.4,-1.4 -2.1,-3.2 -2.1,-5.3l0,-0.6l0,-15.5l-15.4,15.4l0,0.6c0,3 0.5,5.9 1.6,8.8c1.1,2.7 2.7,5.3 4.8,7.3c1.9,2.1 4.3,3.7 7.2,4.9c2.7,1.1 5.9,1.8 9.2,1.8l43,0l3.3,0l12.1,0c3,0 6,-0.6 8.8,-1.8c2.8,-1.2 5.2,-2.8 7.2,-4.9z" class="st0"/>
    <path id="svg_7" d="m329.1,84.9c0,1.9 -0.6,3.5 -2.1,4.6c-1.3,1.1 -2.9,1.6 -4.8,1.6l-1.6,0l-15.4,15.6l17.4,0c3,0 5.7,-0.6 8.3,-1.6c2.5,-1.1 4.8,-2.5 6.8,-4.5c1.9,-1.9 3.5,-4 4.6,-6.5c1.3,-2.4 2.2,-4.9 2.2,-7.8l0,-51.8l-15.4,15.4l0,35z" class="st0"/>
   </g>
   <g id="svg_8" class="st1">
    <polygon id="svg_9" points="192.39999389648438,14.699999809265137 177,30 203.10000610351562,30 203.10000610351562,14.699999809265137 " class="st1"/>
    <polygon id="svg_10" points="115.4000015258789,111.4000015258789 147.5,111.4000015258789 162.8000030517578,96.0999984741211 115.4000015258789,96.0999984741211 " class="st1"/>
    <path id="svg_11" d="m187,60.6c0,2.1 -0.6,3.8 -1.9,5.3c-1.3,1.4 -2.9,2.2 -4.8,2.2l-10.3,0l-3.3,0c-2.1,0 -3.7,-0.8 -4.8,-2.1c-1.3,-1.4 -2.5,-2.9 -2.5,-4.6l0,-26.9l-15.4,15.4l0,1l0,10.5c-0.6,1.6 -1.4,3.2 -2.7,4.6c-1.1,1.4 -2.7,2.1 -4.6,2.1l-24.8,0l-0.5,0l0,-11l0,-0.8c0,-0.3 -0.2,-0.8 -0.2,-1.3l0,-0.2l-0.2,-0.2l0,-0.2l0,-0.3l0,-0.2l-0.2,-0.2l0,-0.2c0,-0.2 -0.2,-0.5 -0.2,-0.6l0,-0.2c-1.9,-7 -7.3,-12.9 -14,-15.8c-12.3,-5 -26.3,1.1 -31.7,12.9c-1.8,4 -1.9,7 -1.9,11.3c0,12.4 10,22.1 22.4,22.1l10.3,0l0,1.4c0,4 -3,6.2 -6.8,6.2l-10.5,0l-15.4,15.5l26.4,0c8.4,0 15.8,-4.6 19.6,-12.3l0.2,-0.2c1.1,-2.4 2.1,-5.1 2.1,-7.8l0,-2l0.5,0l24.8,0c2.7,0 5.6,-0.6 8.3,-1.8c2.9,-1.1 5.3,-2.4 7.2,-4c1.6,1.6 3.8,2.9 6.4,4s5.3,1.6 8.3,1.8l3.3,0l10.3,0c3,0 6,-0.6 8.8,-1.9c2.7,-1.1 5.1,-2.7 7.2,-4.8c2.1,-2.1 3.7,-4.6 4.9,-7.3c1.3,-2.9 1.9,-5.7 1.9,-8.8l0,-26.7l-16.2,16.1l0,10zm-90.6,7.9c-1,0 -9.4,0 -10.7,-0.2c-6.7,-0.5 -8.9,-6 -8.6,-9.7c0,-3.7 3,-8.8 9.4,-9.2c4.5,-0.2 9.9,3.7 9.9,9.1c0,2.6 0,5 0,10z" class="st1"/>
    <path id="svg_12" d="m35.9,84.9c0,1.9 -0.6,3.5 -1.9,4.6c-1.3,1.1 -3,1.6 -4.9,1.6l-1.4,0l-15.4,15.4l17.4,0c2.9,0 5.6,-0.5 8.1,-1.6c2.7,-1 4.9,-2.4 6.8,-4.3s3.5,-4.1 4.8,-6.5c1.1,-2.4 2.1,-5.1 2.1,-7.8l0,-52l-15.4,15l0,35.6l-0.2,0z" class="st1"/>
    <polygon id="svg_13" points="25.399999618530273,30 51.400001525878906,30 51.400001525878906,14.699999809265137 40.70000076293945,14.699999809265137 " class="st1"/>
   </g>
  </g>
 </g>
</svg>